<svg id="Group_1370" data-name="Group 1370" xmlns="http://www.w3.org/2000/svg" width="35.85" height="35.85" viewBox="0 0 35.85 35.85">
  <g id="paint-brush-svgrepo-com_1_" data-name="paint-brush-svgrepo-com(1)" transform="translate(0 0)">
    <path id="Path_700" data-name="Path 700" d="M17.925,0A17.925,17.925,0,1,1,0,17.925,17.925,17.925,0,0,1,17.925,0Z" fill="#4285f4"/>
    <path id="Path_693" data-name="Path 693" d="M144.446,137.264q0-.233-.006-.465l-8.475-8.475-3.129,3.184-.742-.742-15.322,16.247,8.1,8.1c.543.05,1.093.076,1.648.076A17.925,17.925,0,0,0,144.446,137.264Z" transform="translate(-108.596 -119.339)" fill="#2e6fdb"/>
    <path id="Path_694" data-name="Path 694" d="M119.248,300.271a2.474,2.474,0,0,1,3.5,3.5c-.966.966-5.975,2.475-5.975,2.475S118.282,301.238,119.248,300.271Z" transform="translate(-108.597 -278.572)" fill="#31a35c"/>
    <path id="Path_695" data-name="Path 695" d="M122.725,309.626l-5.936,5.936-.018.058s5.008-1.509,5.975-2.475a2.475,2.475,0,0,0,0-3.5C122.739,309.638,122.732,309.633,122.725,309.626Z" transform="translate(-108.595 -287.946)" fill="#1a8743"/>
    <path id="Path_696" data-name="Path 696" d="M186.45,131.524l11.526-10.2c1.373-1.215,1.736-3.071.787-4.019h0c-.949-.949-2.8-.585-4.019.787l-10.2,11.527Z" transform="translate(-171.619 -108.595)" fill="#ffc61b"/>
    <path id="Path_697" data-name="Path 697" d="M211.172,124.081l-.021-.019-13.267,13.267.974.975,11.526-10.2c1.372-1.215,1.736-3.071.787-4.019Z" transform="translate(-184.028 -115.375)" fill="#dca80f"/>
    <path id="Path_698" data-name="Path 698" d="M188.226,240.743l-3.685,4.163,1.909,1.909,4.163-3.685Z" transform="translate(-171.619 -223.886)" fill="#ffc61b"/>
    <path id="Path_699" data-name="Path 699" d="M197.884,261.424l.974.974,4.163-3.685-1.214-1.213Z" transform="translate(-184.028 -239.47)" fill="#dca80f"/>
  </g>
</svg>
