<svg xmlns="http://www.w3.org/2000/svg" width="37.384" height="37.384" viewBox="0 0 37.384 37.384">
  <g id="Group_5706" data-name="Group 5706" transform="translate(-29.198 -636.054)">
    <g id="Group_5702" data-name="Group 5702" transform="translate(29.198 636.054)">
      <path id="Path_700" data-name="Path 700" d="M18.692,0A18.692,18.692,0,1,1,0,18.692,18.692,18.692,0,0,1,18.692,0Z" transform="translate(0 0)" fill="#7aaaf8"/>
      <path id="Path_693" data-name="Path 693" d="M145.586,137.719q0-.243-.006-.485l-9.509-10.607-2.592,5.09-.774-.774L117.81,148.928l7.364,7.4c.566.052,1.139.079,1.719.079A18.692,18.692,0,0,0,145.586,137.719Z" transform="translate(-108.201 -119.027)" fill="#5b7baf" opacity="0.71"/>
      <g id="Group_5701" data-name="Group 5701" transform="translate(8.927 6.683)">
        <path id="Path_1015" data-name="Path 1015" d="M94.015-7692.451H107.57l1.422.852.569,4.738v15.268l-1.607,1.471H93.588l-2.041-.9v-19.252l.711-1.323Z" transform="translate(-90.876 7693.123)" fill="#7aaaf8" stroke="#fff" stroke-width="0.4"/>
        <g id="Group_5698" data-name="Group 5698" transform="translate(0 0)">
          <path id="paper-note-svgrepo-com" d="M6.33,1.3H19.8a3.034,3.034,0,0,1,3.03,3.03V22.288a3.034,3.034,0,0,1-3.03,3.03H6.33a3.034,3.034,0,0,1-3.03-3.03V4.33A3.034,3.034,0,0,1,6.33,1.3ZM19.8,23.748a1.461,1.461,0,0,0,1.459-1.459V4.33A1.461,1.461,0,0,0,19.8,2.871H6.33A1.461,1.461,0,0,0,4.871,4.33V22.288A1.461,1.461,0,0,0,6.33,23.748Z" transform="translate(-3.3 -1.3)" fill="#7aaaf8" stroke="#fff" stroke-linecap="round" stroke-width="0.4"/>
          <g id="Group_5697" data-name="Group 5697" transform="translate(3.3 3.592)">
            <path id="Path_1019" data-name="Path 1019" d="M18.581-7677.5H8.926a.6.6,0,0,1-.571-.618.6.6,0,0,1,.571-.616h9.655a.6.6,0,0,1,.571.616A.6.6,0,0,1,18.581-7677.5Z" transform="translate(-8.355 7678.73)" fill="#7aaaf8" stroke="#fff" stroke-linecap="round" stroke-width="0.4"/>
            <path id="Path_1019-2" data-name="Path 1019" d="M18.581-7677.5H8.926a.6.6,0,0,1-.571-.618.6.6,0,0,1,.571-.616h9.655a.6.6,0,0,1,.571.616A.6.6,0,0,1,18.581-7677.5Z" transform="translate(-8.355 7682.097)" fill="#7aaaf8" stroke="#fff" stroke-linecap="round" stroke-width="0.4"/>
            <path id="Path_1019-3" data-name="Path 1019" d="M13.135-7669.468H9.024a.529.529,0,0,1-.493-.561.531.531,0,0,1,.493-.562h4.111a.531.531,0,0,1,.493.562A.529.529,0,0,1,13.135-7669.468Z" transform="translate(-8.531 7677.324)" fill="#7aaaf8" stroke="#fff" stroke-linecap="round" stroke-width="0.4"/>
          </g>
        </g>
      </g>
      <g id="Group_5700" data-name="Group 5700" transform="translate(8.927 6.683)">
        <path id="Path_1015-2" data-name="Path 1015" d="M94.015-7692.451H107.57l1.422.852.569,4.738v15.268l-1.607,1.471H93.588l-2.041-.9v-19.252l.711-1.323Z" transform="translate(-90.876 7693.123)" fill="#fff"/>
        <g id="Group_5698-2" data-name="Group 5698" transform="translate(0 0)">
          <path id="paper-note-svgrepo-com-2" data-name="paper-note-svgrepo-com" d="M6.33,1.3H19.8a3.034,3.034,0,0,1,3.03,3.03V22.288a3.034,3.034,0,0,1-3.03,3.03H6.33a3.034,3.034,0,0,1-3.03-3.03V4.33A3.034,3.034,0,0,1,6.33,1.3ZM19.8,23.748a1.461,1.461,0,0,0,1.459-1.459V4.33A1.461,1.461,0,0,0,19.8,2.871H6.33A1.461,1.461,0,0,0,4.871,4.33V22.288A1.461,1.461,0,0,0,6.33,23.748Z" transform="translate(-3.3 -1.3)" fill="#5b7baf"/>
          <g id="Group_5697-2" data-name="Group 5697" transform="translate(3.3 3.592)">
            <path id="Path_1019-4" data-name="Path 1019" d="M18.581-7677.5H8.926a.6.6,0,0,1-.571-.618.6.6,0,0,1,.571-.616h9.655a.6.6,0,0,1,.571.616A.6.6,0,0,1,18.581-7677.5Z" transform="translate(-8.355 7678.73)" fill="#5b7baf"/>
            <path id="Path_1019-5" data-name="Path 1019" d="M18.581-7677.5H8.926a.6.6,0,0,1-.571-.618.6.6,0,0,1,.571-.616h9.655a.6.6,0,0,1,.571.616A.6.6,0,0,1,18.581-7677.5Z" transform="translate(-8.355 7682.097)" fill="#5b7baf"/>
            <path id="Path_1019-6" data-name="Path 1019" d="M13.135-7669.468H9.024a.529.529,0,0,1-.493-.561.531.531,0,0,1,.493-.562h4.111a.531.531,0,0,1,.493.562A.529.529,0,0,1,13.135-7669.468Z" transform="translate(-8.531 7677.324)" fill="#5b7baf"/>
          </g>
        </g>
      </g>
    </g>
  </g>
</svg>
