<svg id="Group_659" data-name="Group 659" xmlns="http://www.w3.org/2000/svg" xmlns:xlink="http://www.w3.org/1999/xlink" width="43.998" height="43.874" viewBox="0 0 43.998 43.874">
  <defs>
    <clipPath id="clip-path">
      <rect id="Rectangle_729" data-name="Rectangle 729" width="43.998" height="43.874" fill="#34a853"/>
    </clipPath>
  </defs>
  <g id="Group_658" data-name="Group 658" clip-path="url(#clip-path)">
    <path id="Path_561" data-name="Path 561" d="M312.024,364.85a2.683,2.683,0,0,1-2.747,2.781c-1.892.013-3.786,0-5.679,0h0c-1.842,0-3.683,0-5.525,0a2.749,2.749,0,0,1-2.96-2.973q0-5.487,0-10.974a2.757,2.757,0,0,1,2.876-2.957q5.6-.039,11.2,0a2.731,2.731,0,0,1,2.831,2.917q0,5.6,0,11.2" transform="translate(-272.438 -326.691)" fill="#fbbc05"/>
    <path id="Path_562" data-name="Path 562" d="M16.9,364.791a2.71,2.71,0,0,1-2.2,2.864,2.36,2.36,0,0,1-.494.048c-3.849,0-7.7.009-11.547,0a2.65,2.65,0,0,1-2.582-2.112,4.121,4.121,0,0,1-.056-.839c0-1.829,0-3.657,0-5.486s.046-3.685-.015-5.524a2.812,2.812,0,0,1,2.962-2.95c3.657.013,7.315,0,10.972.006a2.82,2.82,0,0,1,2.884,2.071,3.313,3.313,0,0,1,.072.838q.009,5.544.009,11.087" transform="translate(0 -326.763)" fill="#34a853"/>
    <path id="Path_563" data-name="Path 563" d="M16.931,69.679a2.948,2.948,0,0,1-3.1,3.082c-3.657-.046-7.316-.011-10.974-.016A2.772,2.772,0,0,1,.086,70.59a3.786,3.786,0,0,1-.059-.878q0-2.725,0-5.448c0-1.842.047-3.686-.013-5.525a2.826,2.826,0,0,1,2.941-2.922c3.734.053,7.47.013,11.2.021A2.749,2.749,0,0,1,16.835,57.9a3.616,3.616,0,0,1,.068.877c.005,3.633-.032,7.266.028,10.9" transform="translate(-0.01 -51.528)" fill="#ff0c3e"/>
    <path id="Path_564" data-name="Path 564" d="M296.821,12.036a3.834,3.834,0,0,1-.465.54q-3.825,3.833-7.656,7.658a2.669,2.669,0,0,1-4.118,0q-3.806-3.8-7.606-7.606a2.744,2.744,0,0,1-.005-4.116q3.811-3.821,7.63-7.633A2.81,2.81,0,0,1,288.7.9q2.068,2.075,4.143,4.145c1.2,1.205,2.419,2.4,3.608,3.619a2.63,2.63,0,0,1,.367,3.371" transform="translate(-256.298 0.732)" fill="#4285f4"/>
  </g>
</svg>
