<svg id="Group_1374" data-name="Group 1374" xmlns="http://www.w3.org/2000/svg" width="37.238" height="37.238" viewBox="0 0 37.238 37.238">
  <path id="Path_705" data-name="Path 705" d="M232.973,45.287h16.006A18.659,18.659,0,0,0,240.3,34.044L229.053,45.287Z" transform="translate(-212.394 -31.568)" fill="#fe9700"/>
  <path id="Path_706" data-name="Path 706" d="M191.572,13.719,202.815,2.476A18.663,18.663,0,0,0,188.632.653V16.659Z" transform="translate(-174.913 0)" fill="#feea3b"/>
  <path id="Path_707" data-name="Path 707" d="M45.288,24.984V8.978a18.658,18.658,0,0,0-11.243,8.683L45.288,28.9v-3.92Z" transform="translate(-31.569 -8.325)" fill="#8ac24a"/>
  <g id="Group_1372" data-name="Group 1372" transform="translate(13.72 13.72)">
    <path id="Path_708" data-name="Path 708" d="M188.632,191.572l2.94-2.94h0Z" transform="translate(-188.632 -188.632)" fill="#d8d8da"/>
    <path id="Path_709" data-name="Path 709" d="M191.572,285.887l-2.94-2.94,2.94,2.94h3.92l2.94-2.94-2.94,2.94Z" transform="translate(-188.632 -276.088)" fill="#d8d8da"/>
  </g>
  <path id="Path_710" data-name="Path 710" d="M298.953,188.632H283.017l2.87,2.94,11.243,11.243a18.665,18.665,0,0,0,1.823-14.183Z" transform="translate(-262.368 -174.913)" fill="#f34336"/>
  <path id="Path_711" data-name="Path 711" d="M323.368,232.973v16.006a18.659,18.659,0,0,0,11.243-8.683l-11.243-11.243Z" transform="translate(-299.849 -212.394)" fill="#7b1fa1"/>
  <path id="Path_712" data-name="Path 712" d="M139.6,285.887,128.361,297.13a18.664,18.664,0,0,0,14.183,1.823V282.947Z" transform="translate(-119.025 -262.368)" fill="#3f51b4"/>
  <path id="Path_713" data-name="Path 713" d="M24.982,323.368H8.976a18.659,18.659,0,0,0,8.683,11.243L28.9,323.368Z" transform="translate(-8.323 -299.849)" fill="#03a8f3"/>
  <path id="Path_714" data-name="Path 714" d="M13.719,139.6,2.476,128.36A18.665,18.665,0,0,0,.653,142.543H16.659Z" transform="translate(0 -119.024)" fill="#009587"/>
  <path id="Path_715" data-name="Path 715" d="M283.017,188.633h-.07l2.94,2.94Z" transform="translate(-262.368 -174.913)" fill="#d8d8da"/>
</svg>
