<svg xmlns="http://www.w3.org/2000/svg" xmlns:xlink="http://www.w3.org/1999/xlink" width="45.699" height="63.496" viewBox="0 0 45.699 63.496">
  <defs>
    <clipPath id="clip-path">
      <rect id="Rectangle_896" data-name="Rectangle 896" width="45.699" height="63.496" fill="#4285f4"/>
    </clipPath>
  </defs>
  <g id="Group_1028" data-name="Group 1028" clip-path="url(#clip-path)">
    <path id="Path_654" data-name="Path 654" d="M61.506,79.56s-6.507,9.7-18.88,9.7a23.532,23.532,0,0,1-9.469-1.9,21.32,21.32,0,0,0,2.672.167A20.99,20.99,0,0,0,50.9,51.926c.878-.707,3.1-2.978,4.073-8.366a36.829,36.829,0,0,1,9.8,17.822A23.86,23.86,0,0,1,61.506,79.56" transform="translate(-19.613 -25.766)" fill="#3278ec"/>
    <path id="Path_655" data-name="Path 655" d="M37.959,40.771A21.209,21.209,0,0,1,16.543,61.764a22.185,22.185,0,0,1-2.725-.167H13.81a20.422,20.422,0,0,1-8.576-6.577S-5.5,42.765,3.775,31.123c0,0,0,.069,0,.192v.008C3.55,36.911,6.225,38.48,6.225,38.48c-1.438-3.542-.526-7.761.663-10.964.029-.074.054-.151.083-.225,0-.012.013-.029.017-.041.042-.106.083-.212.125-.315.054-.139.108-.274.163-.408.013-.037.029-.069.046-.106,1.283-2.814,5.368-7.484,5.772-7.945.021-.025.033-.037.033-.037.913-.956,2.259-2.418,3.667-4.109.013-.012.025-.029.038-.041a30.939,30.939,0,0,0,3.476-4.608s0,0,0-.008C22,6.9,23.349,3.5,23.024,0c0,0,14.323,10.437,8.693,25.96l-.175.466a2.936,2.936,0,0,0,.375-.266,20.7,20.7,0,0,1,6.043,14.612" transform="translate(0)" fill="#4285f4"/>
  </g>
</svg>
