<svg id="Group_664" data-name="Group 664" xmlns="http://www.w3.org/2000/svg" width="36.233" height="36.233" viewBox="0 0 36.233 36.233">
  <path id="color-palette-svgrepo-com" d="M12.283,28.982V8.475l3.768-3.75a3.605,3.605,0,0,1,5.109,0l5.127,5.127a3.623,3.623,0,0,1,0,5.109Z" transform="translate(4.022 1.794)" fill="#fbbc05"/>
  <path id="color-palette-svgrepo-com-2" data-name="color-palette-svgrepo-com" d="M12.283,30.87V27.79l.018-.435L23.279,16.377h5.326A3.607,3.607,0,0,1,32.211,20v7.247a3.623,3.623,0,0,1-3.623,3.623Z" transform="translate(4.022 5.363)" fill="#34a853"/>
  <path id="color-palette-svgrepo-com-3" data-name="color-palette-svgrepo-com" d="M0,3.605A3.618,3.618,0,0,1,3.623,0H10.87a3.623,3.623,0,0,1,3.623,3.623V32.61a3.623,3.623,0,0,1-3.623,3.623H3.623A3.623,3.623,0,0,1,0,32.61V3.623ZM7.247,30.8a1.812,1.812,0,1,0-1.812-1.812A1.812,1.812,0,0,0,7.247,30.8Z" transform="translate(0 0)" fill="#4285f4"/>
</svg>
