<svg xmlns="http://www.w3.org/2000/svg" width="36.123" height="28.515" viewBox="0 0 36.123 28.515">
  <g id="heart-svgrepo-com" transform="translate(0 0)">
    <path id="XMLID_810_" d="M33.127,30.2a11.122,11.122,0,0,0-14.5.007l-.558.5L17.5,30.19a10.845,10.845,0,0,0-7.26-2.69A10.78,10.78,0,0,0,3,30.183a8.475,8.475,0,0,0,.008,12.95L16.973,55.6a1.667,1.667,0,0,0,1.108.41,1.7,1.7,0,0,0,1.108-.41L33.112,43.153A8.489,8.489,0,0,0,33.127,30.2Zm-23,3.427a3.161,3.161,0,0,0-3.317,2.963,1.446,1.446,0,0,1-1.521,1.358,1.446,1.446,0,0,1-1.521-1.358c0-3.127,2.85-5.673,6.35-5.673a1.446,1.446,0,0,1,1.521,1.358A1.428,1.428,0,0,1,10.125,33.623Z" transform="translate(0 -27.5)" fill="#7e84a3"/>
  </g>
</svg>
