<svg xmlns="http://www.w3.org/2000/svg" width="37.578" height="29.87" viewBox="0 0 37.578 29.87">
  <path id="message-svgrepo-com" d="M26.926,3.25H15.152a52.836,52.836,0,0,0-6.43.225A7.164,7.164,0,0,0,4.367,5.367,7.164,7.164,0,0,0,2.475,9.722a52.835,52.835,0,0,0-.225,6.43v4.066a52.837,52.837,0,0,0,.225,6.43A7.164,7.164,0,0,0,4.367,31,7.164,7.164,0,0,0,8.722,32.9a52.867,52.867,0,0,0,6.43.225H26.926a52.868,52.868,0,0,0,6.43-.225A7.164,7.164,0,0,0,37.712,31,7.164,7.164,0,0,0,39.6,26.648a52.87,52.87,0,0,0,.225-6.43V16.152a52.869,52.869,0,0,0-.225-6.43,7.164,7.164,0,0,0-1.892-4.355,7.164,7.164,0,0,0-4.355-1.892A52.837,52.837,0,0,0,26.926,3.25Zm-16.8,7.861A1.445,1.445,0,0,0,8.83,13.7l9.839,4.919a5.3,5.3,0,0,0,4.74,0L33.248,13.7a1.445,1.445,0,0,0-1.293-2.585L22.116,16.03a2.409,2.409,0,0,1-2.154,0Z" transform="translate(-2.25 -3.25)" fill="#7e84a3" fill-rule="evenodd"/>
</svg>
