<svg xmlns="http://www.w3.org/2000/svg" width="40.547" height="41.771" viewBox="0 0 40.547 41.771">
  <g id="Group_5707" data-name="Group 5707" transform="translate(-27.222 -580.528)">
    <circle id="Ellipse_187" data-name="Ellipse 187" cx="9.755" cy="9.755" r="9.755" transform="translate(38.687 591.987)" fill="#4285f4"/>
    <g id="Group_5694" data-name="Group 5694" transform="matrix(0.985, -0.174, 0.174, 0.985, 23.819, 584.474)">
      <path id="Path_1005" data-name="Path 1005" d="M5.185.1A.321.321,0,0,0,4.72.1L.09,4.92a.323.323,0,0,0-.006.442A10.72,10.72,0,0,1,2.352,9.218a.323.323,0,0,0,.4.208l6.419-1.86a.322.322,0,0,0,.218-.408A18.23,18.23,0,0,0,5.185.1Z" transform="translate(29.132 8.718)" fill="#fe9700"/>
      <path id="Path_1008" data-name="Path 1008" d="M2.015.013A.324.324,0,0,0,1.61.246L.01,6.74a.323.323,0,0,0,.215.385A10.729,10.729,0,0,1,4.143,9.378a.323.323,0,0,0,.449-.017L9.217,4.545A.321.321,0,0,0,9.2,4.085,18.189,18.189,0,0,0,2.015.013Z" transform="translate(24.318 3.953)" fill="#feea3b"/>
      <path id="Path_1012" data-name="Path 1012" d="M7.208,8.432A18.242,18.242,0,0,0,7.6,4.66,18.226,18.226,0,0,0,7.06.244a.322.322,0,0,0-.153-.2.33.33,0,0,0-.251-.03L.234,1.872a.324.324,0,0,0-.226.382A10.791,10.791,0,0,1,.281,4.66,10.879,10.879,0,0,1,.085,6.7a.325.325,0,0,0,.24.375l6.489,1.6a.329.329,0,0,0,.078.009.323.323,0,0,0,.316-.256Z" transform="translate(31.761 16.705)" fill="#f34336"/>
      <path id="Path_1014" data-name="Path 1014" d="M5.145,9.31h.012A.32.32,0,0,0,5.386,9.2,18.2,18.2,0,0,0,9.312,2.009a.325.325,0,0,0-.033-.249.322.322,0,0,0-.2-.151L2.589.01A.32.32,0,0,0,2.2.231,10.73,10.73,0,0,1,.077,4.148.323.323,0,0,0,.1,4.59L4.92,9.221A.327.327,0,0,0,5.145,9.31Z" transform="translate(29.393 24.211)" fill="#7b1fa1"/>
      <path id="Path_1005-2" data-name="Path 1005" d="M5.185.1A.321.321,0,0,0,4.72.1L.09,4.92a.323.323,0,0,0-.006.442A10.72,10.72,0,0,1,2.352,9.218a.323.323,0,0,0,.4.208l6.419-1.86a.322.322,0,0,0,.218-.408A18.23,18.23,0,0,0,5.185.1Z" transform="translate(28.174 34.406) rotate(120)" fill="#7aaaf8"/>
      <path id="Path_1008-2" data-name="Path 1008" d="M2.015.013A.324.324,0,0,0,1.61.246L.01,6.74a.323.323,0,0,0,.215.385A10.729,10.729,0,0,1,4.143,9.378a.323.323,0,0,0,.449-.017L9.217,4.545A.321.321,0,0,0,9.2,4.085,18.189,18.189,0,0,0,2.015.013Z" transform="translate(34.707 32.619) rotate(120)" fill="#3f51b4"/>
      <path id="Path_1012-2" data-name="Path 1012" d="M7.208,8.432A18.242,18.242,0,0,0,7.6,4.66,18.226,18.226,0,0,0,7.06.244a.322.322,0,0,0-.153-.2.33.33,0,0,0-.251-.03L.234,1.872a.324.324,0,0,0-.226.382A10.791,10.791,0,0,1,.281,4.66,10.879,10.879,0,0,1,.085,6.7a.325.325,0,0,0,.24.375l6.489,1.6a.329.329,0,0,0,.078.009.323.323,0,0,0,.316-.256Z" transform="translate(19.942 32.689) rotate(120)" fill="#7aaaf8"/>
      <path id="Path_1014-2" data-name="Path 1014" d="M5.145,9.31h.012A.32.32,0,0,0,5.386,9.2,18.2,18.2,0,0,0,9.312,2.009a.325.325,0,0,0-.033-.249.322.322,0,0,0-.2-.151L2.589.01A.32.32,0,0,0,2.2.231,10.73,10.73,0,0,1,.077,4.148.323.323,0,0,0,.1,4.59L4.92,9.221A.327.327,0,0,0,5.145,9.31Z" transform="translate(14.625 26.885) rotate(120)" fill="#7aaaf8"/>
      <path id="Path_1005-3" data-name="Path 1005" d="M5.185.1A.321.321,0,0,0,4.72.1L.09,4.92a.323.323,0,0,0-.006.442A10.72,10.72,0,0,1,2.352,9.218a.323.323,0,0,0,.4.208l6.419-1.86a.322.322,0,0,0,.218-.408A18.23,18.23,0,0,0,5.185.1Z" transform="translate(6.399 20.99) rotate(-121)" fill="#7aaaf8"/>
      <path id="Path_1008-3" data-name="Path 1008" d="M2.015.013A.324.324,0,0,0,1.61.246L.01,6.74a.323.323,0,0,0,.215.385A10.729,10.729,0,0,1,4.143,9.378a.323.323,0,0,0,.449-.017L9.217,4.545A.321.321,0,0,0,9.2,4.085,18.189,18.189,0,0,0,2.015.013Z" transform="translate(4.794 27.571) rotate(-121)" fill="#7aaaf8"/>
      <path id="Path_1012-3" data-name="Path 1012" d="M7.208,8.432A18.242,18.242,0,0,0,7.6,4.66,18.226,18.226,0,0,0,7.06.244a.322.322,0,0,0-.153-.2.33.33,0,0,0-.251-.03L.234,1.872a.324.324,0,0,0-.226.382A10.791,10.791,0,0,1,.281,4.66,10.879,10.879,0,0,1,.085,6.7a.325.325,0,0,0,.24.375l6.489,1.6a.329.329,0,0,0,.078.009.323.323,0,0,0,.316-.256Z" transform="translate(11.891 14.623) rotate(-121)" fill="#7aaaf8"/>
      <path id="Path_1014-3" data-name="Path 1014" d="M5.145,9.31h.012A.32.32,0,0,0,5.386,9.2,18.2,18.2,0,0,0,9.312,2.009a.325.325,0,0,0-.033-.249.322.322,0,0,0-.2-.151L2.589.01A.32.32,0,0,0,2.2.231,10.73,10.73,0,0,1,.077,4.148.323.323,0,0,0,.1,4.59L4.92,9.221A.327.327,0,0,0,5.145,9.31Z" transform="translate(19.545 12.787) rotate(-121)" fill="#7aaaf8"/>
    </g>
  </g>
</svg>
